HIERARCHY
ROOT hip
{
	OFFSET 0.000000 0.000000 0.000000 
	CHANNELS 6 Xposition Yposition Zposition Xrotation Zrotation Yrotation
	JOINT abdomen
	{
		OFFSET 0.000000 3.402643 0.000000 
		CHANNELS 3 Xrotation Zrotation Yrotation
		JOINT chest
		{
			OFFSET 0.000000 8.438565 -0.680529 
			CHANNELS 3 Xrotation Zrotation Yrotation
			JOINT neck
			{
				OFFSET 0.000000 10.207942 -0.272212 
				CHANNELS 3 Xrotation Zrotation Yrotation
				JOINT head
				{
					OFFSET 0.000000 3.130431 0.000000 
					CHANNELS 3 Xrotation Zrotation Yrotation
					End Site
					{
						OFFSET 0.000000 3.130435 0.000000 
					}
				}
			}
			JOINT lCollar
			{
				OFFSET 3.470700 6.669187 -0.816635 
				CHANNELS 3 Yrotation Zrotation Xrotation
				JOINT lShldr
				{
					OFFSET 3.198488 0.000000 0.000000 
					CHANNELS 3 Zrotation Yrotation Xrotation
					JOINT lForeArm
					{
						OFFSET 10.139888 0.000000 0.000000 
						CHANNELS 3 Yrotation Zrotation Xrotation
						JOINT lHand
						{
							OFFSET 8.370511 0.000000 0.000000 
							CHANNELS 3 Zrotation Yrotation Xrotation
							End Site
							{
								OFFSET 4.083176 0.000000 0.000000 
							}
						}
					}
				}
			}
			JOINT rCollar
			{
				OFFSET -3.470700 6.669187 -0.816635 
				CHANNELS 3 Yrotation Zrotation Xrotation
				JOINT rShldr
				{
					OFFSET -3.198488 0.000000 0.000000 
					CHANNELS 3 Zrotation Yrotation Xrotation
					JOINT rForeArm
					{
						OFFSET -10.139888 0.000000 0.000000 
						CHANNELS 3 Yrotation Zrotation Xrotation
						JOINT rHand
						{
							OFFSET -8.370511 0.000000 0.000000 
							CHANNELS 3 Zrotation Yrotation Xrotation
							End Site
							{
								OFFSET -4.083176 0.000000 0.000000 
							}
						}
					}
				}
			}
		}
	}
	JOINT lThigh
	{
		OFFSET 5.308129 -1.633274 1.361059 
		CHANNELS 3 Xrotation Zrotation Yrotation
		JOINT lShin
		{
			OFFSET -2.041588 -20.007561 0.000000 
			CHANNELS 3 Xrotation Zrotation Yrotation
			JOINT lFoot
			{
				OFFSET 0.000000 -19.190928 -1.224953 
				CHANNELS 3 Xrotation Yrotation Zrotation
				End Site
				{
					OFFSET 0.000000 -2.449906 4.627600 
				}
			}
		}
	}
	JOINT rThigh
	{
		OFFSET -5.308129 -1.633274 1.361059 
		CHANNELS 3 Xrotation Zrotation Yrotation
		JOINT rShin
		{
			OFFSET 2.041588 -20.007561 0.000000 
			CHANNELS 3 Xrotation Zrotation Yrotation
			JOINT rFoot
			{
				OFFSET 0.000000 -19.190928 -1.224953 
				CHANNELS 3 Xrotation Yrotation Zrotation
				End Site
				{
					OFFSET 0.000000 -2.449906 4.627600 
				}
			}
		}
	}
}
MOTION
Frames: 14
Frame Time: 0.033333
-3.674977 36.988956 79.227364 23.378908 1.933594 104.765953 22.558594 9.130858 11.054688 -8.388673 8.251954 9.980469 -3.496094 -6.845703 18.085936 18.066406 -18.203125 18.085938 6.445313 5.771484 0.205078 -71.855469 30.625000 -14.653229 -106.982422 -2.812500 -97.509285 40.595722 -139.628906 -27.711405 6.669922 0.429688 -0.048828 67.880859 10.859376 -36.367191 64.160156 3.447266 -78.476448 1.835937 -8.603515 -0.576172 -17.373482 19.209667 18.750330 47.209885 -0.735340 -2.894746 -7.750328 2.822186 -6.618762 -28.005413 -42.303379 21.161049 70.851677 -1.961356 3.652469 -31.386423 -12.955025 -0.749493 
-3.808663 36.949398 79.425049 24.257813 1.933594 103.535492 23.164063 9.902344 10.937499 -8.378905 8.603516 9.806149 -3.652344 -7.001953 18.447266 17.363279 -18.212891 18.466797 6.269531 5.419922 0.262750 -71.357422 29.541016 -16.103516 -102.001953 -2.919922 -97.890129 39.951199 -138.798828 -27.643152 7.021484 0.429688 -0.048828 68.232422 12.099609 -38.183598 69.697266 3.544922 -81.884766 2.666016 -3.671875 -0.518204 -16.705750 18.234705 19.808655 46.499584 -0.550262 -2.772831 -7.533056 3.528794 -6.693908 -30.480026 -42.144283 24.101048 71.933167 -1.620168 3.567067 -31.387718 -13.017078 -0.786328 
-3.981426 36.910561 79.532593 24.960938 1.757813 102.656555 23.925781 10.449220 10.968569 -8.544922 8.955079 9.620661 -4.492187 -6.621094 19.129736 16.650391 -18.564453 19.020330 5.937500 4.873047 0.174952 -70.566406 27.910158 -18.095701 -97.041016 -2.871094 -98.349609 38.808617 -138.085938 -26.920589 7.021484 0.429688 -0.048828 67.968750 14.667968 -40.585941 75.029297 3.583984 -84.873047 5.253907 0.195313 -0.175746 -16.316652 17.993862 20.725948 45.792362 -0.725996 -2.623832 -6.619663 3.722286 -6.605465 -32.645195 -41.997128 26.006506 72.442039 -1.790613 3.638242 -31.204845 -12.869477 -1.071247 
-4.184073 36.862045 79.541306 25.126953 1.406250 102.119141 24.296877 10.791016 11.085812 -8.720703 9.140626 9.443359 -5.507813 -6.601562 19.657084 16.113281 -18.740234 19.567177 5.595703 4.160156 0.107422 -69.433594 26.220703 -20.132404 -92.275391 -2.861328 -98.476563 37.255867 -137.382828 -25.992939 7.021484 0.605469 -0.068463 67.402344 18.232422 -43.173832 81.298828 3.437500 -86.425781 6.669922 4.492187 0.605469 -16.842741 18.332075 21.864876 46.297726 -0.616156 -2.954171 -5.617020 2.865430 -6.967781 -34.334866 -41.626507 27.407473 72.790909 -1.790625 3.457212 -30.871328 -12.680045 -0.885054 
-4.381276 36.805424 79.450562 25.136721 0.878906 101.777496 24.667969 10.839844 10.919806 -8.896484 9.140626 9.257812 -6.894531 -6.054687 19.990234 15.937500 -19.091797 19.928444 5.771484 3.808594 0.126953 -68.056641 24.072268 -21.997967 -87.744141 -2.841797 -98.710938 35.888683 -136.611328 -25.133659 6.669921 0.781250 -0.087891 65.878906 23.193359 -44.771545 87.988281 3.466797 -83.808594 5.292969 12.490234 1.447426 -17.419510 19.143764 22.566402 46.836071 -0.772433 -2.696789 -4.568735 0.115363 -7.002028 -35.307014 -41.413879 27.944517 72.960114 -2.030300 3.648787 -30.582096 -13.093921 -0.752312 
-4.562991 36.733803 79.243446 24.785158 0.175781 101.777382 24.833986 10.673829 10.861184 -9.248047 9.150390 9.238280 -8.261719 -5.507813 20.468750 15.761719 -19.277342 20.292973 5.947266 3.457031 0.146484 -66.630859 22.207029 -24.000217 -83.642578 -2.978516 -98.544922 34.882813 -135.888657 -24.586876 6.318359 0.781250 -0.088024 63.124996 30.029295 -48.564453 93.066406 3.564453 -83.994751 5.986328 18.007811 2.255860 -18.640793 20.346350 23.270279 47.351776 -0.557893 -2.992982 -3.428093 -3.975526 -7.313702 -36.275505 -41.443974 28.703197 72.791756 -1.962545 3.518669 -30.299265 -13.450731 -0.752460 
-4.719059 36.635929 78.923683 23.896484 -0.537109 102.304688 24.638672 10.341798 10.751954 -9.609375 8.974610 9.042968 -9.980468 -4.609375 20.966013 15.761717 -19.628904 20.644535 6.308594 3.291016 0.146484 -65.136711 20.947266 -26.012136 -80.185547 -2.861328 -98.290527 34.003906 -135.273438 -24.248045 5.615235 0.605469 -0.058697 58.847660 38.105469 -55.443192 99.023438 3.505859 -84.257813 4.882813 18.417969 1.975743 -20.389088 22.436964 22.811386 48.254997 -0.753136 -2.927812 -3.238283 -9.603031 -7.923754 -36.485394 -41.285984 28.712414 72.430214 -1.962366 3.517233 -29.717508 -13.943336 -1.039186 
-4.821412 36.519909 78.481377 22.500000 -1.240234 102.997841 24.277346 10.175780 10.695085 -9.970703 8.808594 9.023438 -11.875000 -3.359375 21.435551 15.761719 -19.980469 20.996096 6.660156 3.291015 0.126392 -63.603516 20.292971 -28.072784 -77.500000 -2.890625 -98.319824 33.623055 -134.687500 -24.098740 4.912109 0.605469 -0.048931 50.917969 46.904297 -64.677734 103.349609 3.662110 -82.031250 3.535156 18.496092 1.572266 -21.961601 24.703423 22.307861 48.079250 -0.726315 -2.916908 -3.980990 -11.465933 -8.200417 -36.151413 -40.953197 27.735401 71.923828 -1.614985 3.560663 -29.068138 -14.702972 -1.254345 
-4.861820 36.394566 77.885048 20.566406 -1.943359 104.052406 23.554688 9.843750 10.587606 -10.498048 8.642578 9.169923 -13.613280 -2.109375 21.737923 15.761717 -20.332029 21.347656 7.011719 3.291015 0.107422 -61.894531 19.833982 -30.449215 -75.517578 -2.822266 -98.007332 33.144531 -134.257813 -23.808596 3.505859 0.078125 -0.009779 37.978512 55.351563 -76.904297 107.353516 3.496094 -78.408203 2.021484 19.082031 1.103516 -23.553514 27.193684 21.677586 47.001637 -0.440592 -2.917370 -5.907993 -9.712531 -8.058882 -34.879875 -40.565273 26.172966 71.052483 -1.601015 3.356417 -28.103403 -15.587262 -1.299137 
-4.812095 36.275517 77.136650 18.281250 -2.646484 105.810097 22.656250 9.501953 10.439453 -11.025392 8.828125 9.140625 -15.712892 -1.054687 21.875000 15.947264 -20.322266 21.513672 7.714844 3.115234 0.087360 -60.507813 19.853514 -32.705078 -74.863281 -2.851562 -97.860847 33.427738 -133.574219 -24.216061 1.572266 -1.328125 0.029297 17.822268 61.005863 -94.454353 109.238281 3.632813 -74.961555 0.673828 19.990232 0.644531 -25.272129 29.742666 20.062353 45.267097 -0.765077 -2.815861 -6.789616 -8.466639 -8.175846 -32.235527 -40.385426 23.308430 69.277649 -1.946939 3.421916 -27.695705 -16.454924 -1.865439 
-4.657601 36.185871 76.204727 15.810548 -2.988281 108.095192 21.210939 8.837891 10.226110 -11.376953 9.013672 9.298406 -17.812502 0.351563 21.816385 16.474609 -20.146484 21.318363 8.417968 3.291016 0.019531 -59.453129 19.892578 -34.609379 -75.097656 -2.968750 -97.529297 33.457054 -132.822266 -24.655603 -1.406250 -3.085938 0.097656 -8.906251 62.783203 -117.519524 109.091797 3.642578 -70.087891 2.109375 20.820194 1.341350 -27.207083 32.382877 18.280384 42.976788 -0.772852 -2.875972 -5.512852 -10.711457 -8.662861 -28.130791 -40.329521 19.867598 66.838211 -1.434425 3.317245 -27.132429 -17.910063 -2.375561 
-4.401963 36.134937 75.091797 13.007813 -3.173828 110.907661 19.619141 8.222656 9.835381 -12.089844 9.023438 9.267578 -19.775393 2.099610 21.396484 17.011717 -19.970705 20.937500 8.935546 3.837891 0.087891 -58.369144 19.863279 -36.093746 -76.474609 -3.017578 -97.167450 33.095711 -132.431641 -24.362677 -4.726562 -5.039062 0.108280 -32.656250 59.638672 -136.523438 107.119141 3.720703 -64.483047 3.496094 21.289063 1.741829 -29.677319 34.686569 15.980179 41.225002 -0.871835 -2.647965 -3.152793 -16.426983 -8.450663 -22.515352 -40.299412 15.065634 63.491894 -1.247855 3.340338 -26.273718 -19.311361 -2.932889 
-4.072285 36.117035 73.789291 10.019531 -3.173828 114.247505 17.802732 7.333984 9.726563 -13.330078 8.867188 9.376505 -21.601561 4.160156 20.264383 18.076172 -19.609375 19.840473 8.906250 5.107422 0.234375 -57.128906 20.722654 -36.220703 -79.306641 -2.900391 -97.938957 33.867191 -132.792969 -24.860683 -8.359375 -6.884765 0.216014 -49.169926 53.847652 -148.017578 104.160156 3.730469 -59.765987 3.222656 20.263672 1.562500 -33.172699 36.433331 13.357067 40.882172 -0.760940 -2.407109 -0.682669 -21.694908 -7.856006 -15.739347 -39.947155 9.349766 59.287769 -0.896766 3.178259 -24.850470 -20.830160 -3.077027 
-3.694213 36.123199 72.353828 6.855469 -2.988281 118.115242 15.800782 6.113281 9.483462 -14.931641 8.369141 9.464312 -23.291016 6.376953 18.575304 19.140625 -18.554689 18.209785 8.681640 6.894531 0.332031 -55.634766 21.386719 -35.087894 -83.222656 -2.832031 -98.632813 34.521496 -133.310547 -25.358673 -11.953125 -8.779297 0.284694 -59.423828 48.437500 -153.000504 100.234375 3.652344 -55.586563 1.845703 19.257813 1.093750 -37.787109 37.394466 10.372789 42.971146 -0.764511 -3.027843 0.514815 -22.541445 -7.418021 -8.075034 -38.279755 3.032431 54.014881 -0.855422 3.355935 -23.485800 -23.275118 -3.327759 
